<svg xmlns="http://www.w3.org/2000/svg" xmlns:xlink="http://www.w3.org/1999/xlink" version="1.1" id="Layer_1" x="0px" y="0px" style="enable-background:new 0 0 1024 1024;" xml:space="preserve" viewBox="246.11 621.34 547.34 222.15">
<style type="text/css">
	.st0{fill:#7717FF;}
</style>
<g>
	<path class="st0" d="M268.33,621.5c165.26-0.3,330.54-0.01,495.8-0.14c5.27-0.14,10.54,0.48,15.74,1.32   c12.02,6.09,14.7,21.36,13.2,33.67c-179.65,0.05-359.3,0.06-538.95-0.01c0.29-7.97-1.19-16.75,2.99-23.97   C259.27,627.4,263.81,624.17,268.33,621.5z"/>
	<path class="st0" d="M681.13,695.4L681.13,695.4z"/>
	<path class="st0" d="M792.14,815.42c1.92,16.01-14.89,29.3-30,27.98c-161.92-0.19-323.88,0.28-485.78-0.24   c-13.72-1-23.24-14.55-22.24-27.75L792.14,815.42z"/>
</g>
<g>
	<path class="st0" d="M246.11,633.82c2.04-8.84,13.38-13.07,22.22-12.32c-4.52,2.67-9.06,5.9-11.22,10.87   c-4.18,7.22-2.7,16-2.99,23.97c0.02,4.66,0.03,9.37,0.01,14.06c-0.01,7.95-0.08,15.91,0.04,23.87   c-0.09,40.38-0.01,80.76-0.05,121.14c-1,13.2,8.52,26.75,22.24,27.75c-10.31,1.29-21.74-4.15-26.23-13.78   c-3.15-5.08-3.29-11.24-3.94-16.99c-0.16-55.01,0.01-110.01-0.08-165.02V633.82z"/>
</g>
<rect x="254.09" y="670.37" class="st0" width="538.89" height="24.93"/>
<path class="st0" d="M376.12,750.38h-93.05v-15.42c0-7.53,6.1-13.63,13.63-13.63h67.18c6.76,0,12.25,5.48,12.25,12.25V750.38z"/>
<path class="st0" d="M283.59,756.94h93.05v15.42c0,7.53-6.1,13.63-13.63,13.63h-67.18c-6.76,0-12.25-5.48-12.25-12.25V756.94z"/>
<g>
	<path class="st0" d="M438.25,775.99l-17.38-48.16h13.68l11.52,38.46l11.59-38.46h13.33l-17.38,48.16H438.25z"/>
	<path class="st0" d="M521.37,751.91c0,15.42-9.63,25.06-24.64,25.06c-15.01,0-24.64-9.63-24.64-25.06   c0-15.49,9.63-25.06,24.64-25.06C511.74,726.86,521.37,736.42,521.37,751.91z M508.53,751.91c0-10.26-4.54-15.84-11.79-15.84   c-7.26,0-11.8,5.58-11.8,15.84c0,10.19,4.54,15.84,11.8,15.84C503.99,767.76,508.53,762.1,508.53,751.91z"/>
	<path class="st0" d="M570.08,775.99H556.4c-1.12-3.42-1.81-6.21-2.23-9.63c-0.63-5.3-2.72-8.38-5.93-8.58   c-1.4-0.07-2.58-0.07-3.98-0.07h-2.79v18.29H528.9v-48.16h19.12c3,0,4.96,0.07,7.54,0.35c6.98,0.84,13.05,4.26,13.05,12.77   c0,6.07-3.28,10.12-9.7,12c5.03,1.82,6.84,5.51,7.54,11.31C567.08,769.71,568.2,773.13,570.08,775.99z M546,748.63   c1.33,0,2.44,0,3.35-0.07c3.21-0.28,6.14-1.4,6.14-5.44s-2.58-5.16-5.79-5.44c-0.91-0.07-2.02-0.07-3.35-0.07h-4.89v11.03H546z"/>
	<path class="st0" d="M600.09,737.61v38.39h-12.56v-38.39h-15.63v-9.77h43.83v9.77H600.09z"/>
	<path class="st0" d="M620.61,775.99v-48.16h12.56v48.16H620.61z"/>
	<path class="st0" d="M686.7,750.31v25.68h-9.77l-1.19-7.4l-2.09,5.3c-2.72,2.3-6,3.07-11.1,3.07c-12.84,0-21.85-8.52-21.85-24.71   c0-16.75,11.31-25.41,24.5-25.41c13.75,0,20.8,7.33,21.78,16.82l0.07,0.7h-12.56l-0.14-0.7c-1.05-5.17-4.19-7.61-9.28-7.61   c-6.14,0-11.24,5.03-11.24,15.42c0,12.14,5.24,16.26,11.17,16.26c4.89,0,8.1-2.37,9.84-7.68h-9.35v-9.77H686.7z"/>
	<path class="st0" d="M707.57,763.5l-4.05,12.49h-13.33l17.38-48.16h15.35l17.38,48.16h-13.68l-4.05-12.49H707.57z M710.64,753.73   h8.93l-4.47-14.8L710.64,753.73z"/>
</g>
<g>
	<path class="st0" d="M549.43,786.49l0.01,0.12h-1.03l-0.02-0.12c-0.24-1.19-0.97-1.99-2.35-1.99c-1.69,0-2.73,1.47-2.73,3.48   c0,2.04,1.03,3.5,2.66,3.5c1.38,0,2.11-0.8,2.35-1.99l0.02-0.12h1.03l-0.01,0.12c-0.16,1.5-1.27,2.81-3.45,2.81   c-2.41,0-3.75-1.85-3.75-4.27c0-2.52,1.56-4.34,3.91-4.34C548.16,783.68,549.26,784.87,549.43,786.49z"/>
	<path class="st0" d="M553.21,792.13l-2.85-8.28h1.12l2.46,7.5l2.54-7.5h1.1l-2.97,8.28H553.21z"/>
	<path class="st0" d="M560.67,792.13l-2.85-8.28h1.12l2.46,7.5l2.54-7.5h1.1l-2.97,8.28H560.67z"/>
	<path class="st0" d="M571.17,791.29v0.84h-5.55v-0.59l3-3.06c0.97-1,1.44-1.59,1.44-2.4c0-0.85-0.49-1.58-1.49-1.58   c-1.07,0-1.58,0.66-1.7,1.82l-0.01,0.12h-1.03l0.01-0.12c0.17-1.73,1.2-2.64,2.85-2.64c1.69,0,2.52,1.04,2.52,2.28   c0,1.13-0.61,1.9-2.01,3.27l-2.08,2.05H571.17z"/>
	<path class="st0" d="M588.76,786.14h-1.1c-0.1-1.04-0.71-1.64-1.75-1.64c-0.88,0-1.57,0.41-1.57,1.27c0,0.9,0.52,1.28,1.77,1.57   c1.82,0.42,2.73,1.16,2.73,2.57c0,1.45-1.25,2.39-2.84,2.39c-1.82,0-2.97-0.92-3.15-2.52h1.1c0.24,1.09,1,1.7,2.07,1.7   c0.95,0,1.72-0.52,1.72-1.38c0-1.01-0.58-1.46-2.03-1.8c-1.46-0.34-2.48-0.92-2.48-2.29c0-1.43,1.24-2.33,2.76-2.33   C587.71,783.68,588.61,784.73,588.76,786.14z"/>
	<path class="st0" d="M599.66,792.13h-1.03v-3.62h-4.56v3.62h-1.03v-8.28h1.03v3.79h4.56v-3.79h1.03V792.13z"/>
	<path class="st0" d="M611.57,787.99c0,2.52-1.39,4.31-3.91,4.31s-3.91-1.79-3.91-4.31c0-2.53,1.39-4.31,3.91-4.31   S611.57,785.46,611.57,787.99z M610.42,787.99c0-2.16-1.02-3.49-2.76-3.49c-1.74,0-2.76,1.33-2.76,3.49c0,2.15,1.02,3.49,2.76,3.49   C609.4,791.48,610.42,790.14,610.42,787.99z"/>
	<path class="st0" d="M621.62,786.3c0,1.4-0.95,2.24-2.15,2.4c-0.37,0.05-0.66,0.05-1.08,0.05h-1.54v3.38h-1.03v-8.28h2.57   c0.42,0,0.71,0,1.08,0.05C620.79,784.07,621.62,784.89,621.62,786.3z M620.51,786.3c0-0.96-0.52-1.39-1.1-1.52   c-0.23-0.05-0.55-0.06-0.92-0.06h-1.63v3.17h1.63c0.37,0,0.7-0.01,0.92-0.06C620,787.69,620.51,787.26,620.51,786.3z"/>
</g>
</svg>